<?xml version="1.0" encoding="UTF-8"?>
<svg id="a" data-name="Calque 1" xmlns="http://www.w3.org/2000/svg" viewBox="0 0 179.832 126.3">
  <defs>
    <style>
      .b {
        fill: #010101;
      }
    </style>
  </defs>
  <circle class="b" cx="97.632" cy="115" r="11.3"/>
  <path class="b" d="M82.132.7h-10.7c-1.1,0-2.1.9-2.1,2.1v11.9C57.231,3.3,38.932-.1,23.132,7.6,2.732,17.5-5.768,42.2,4.132,62.5c7.1,14.6,21.8,23.1,37,23.1,6,0,12.1-1.3,17.9-4.1,3.8-1.9,7.2-4.2,10.2-7.1v10.5c-.2,14.4-11.9,26-26.3,26s-25.1-10.6-26.2-24c-.1-1.3-1.1-2.3-2.4-2.3H4.332c-1.4,0-2.5,1.1-2.4,2.5,1.3,21.5,19.2,38.6,41,38.6,3.7,0,7.3-.5,10.9-1.5,3.4-.9,6.8-2.3,9.8-4.2,3-1.8,5.8-4,8.3-6.4s4.7-5.3,6.4-8.3,3.2-6.4,4.1-9.8c.7-2.6,1.3-5.3,1.3-8l.2-84.8c0-1.1-.9-2.1-2.1-2.1l.3.1ZM66.032,53.1c-2.3,6.6-7,12-13.4,15.1-13.1,6.4-28.8.9-35.2-12.2-6.3-13.1-.9-28.8,12.2-35.2,3.7-1.8,7.6-2.7,11.5-2.7,9.8,0,19.2,5.5,23.7,14.8h0c3.1,6.3,3.5,13.5,1.2,20.1v.1Z"/>
  <path class="b" d="M138.731.1c-14,0-26.4,7.1-33.9,17.8V2.7c0-1.2-.9-2.1-2.1-2.1h-10.6c-1.2,0-2.1.9-2.1,2.1v86.2c0,1.2.9,2.1,2.1,2.1h10.6c1.2,0,2.1-.9,2.1-2.1v-24.5c7.4,10.8,19.8,17.8,33.9,17.8,22.7,0,41.1-18.4,41.1-41.1S161.432,0,138.731,0v.1ZM138.731,67.6c-14.5,0-26.3-11.8-26.3-26.3s11.8-26.3,26.3-26.3,26.3,11.8,26.3,26.3-11.8,26.3-26.3,26.3Z"/>
</svg>